# xmcd CD database file
#
# Track frame offsets:
#	150
#	54583
#	87818
#	103398
#	132615
#	148735
#
# Disc length: 2223 seconds
#
# Revision: 0
# Processed by: cddbd v1.5.1PL0 Copyright (c) Steve Scherf et al.
# Submitted via: CDex 1.51
#
DISCID=5908ad06
DTITLE=Georg Gräwe - Six Studies For Piano Solo
DYEAR=1988
DGENRE=New Age
TTITLE0=Study I
TTITLE1=Study II
TTITLE2=Study III
TTITLE3=Study IV
TTITLE4=Study V
TTITLE5=Study VI
EXTD=YEAR: 1988
EXTT0=
EXTT1=
EXTT2=
EXTT3=
EXTT4=
EXTT5=
PLAYORDER=
